<svg width="200" height="200" viewBox="0 0 200 200" fill="none" xmlns="http://www.w3.org/2000/svg">
<circle cx="100" cy="100" r="97.5" stroke="#1DB954" stroke-width="5"/>
<mask id="path-2-outside-1_849_341" maskUnits="userSpaceOnUse" x="35" y="24" width="69" height="75" fill="black">
<rect fill="white" x="35" y="24" width="69" height="75"/>
<path d="M36.5114 25.2727H41.3409L69.3594 91.608H69.8565L97.875 25.2727H102.705V98H98.4432V35.8196H98.017L71.7031 98H67.5128L41.1989 35.8196H40.7727V98H36.5114V25.2727Z"/>
</mask>
<path d="M36.5114 25.2727H41.3409L69.3594 91.608H69.8565L97.875 25.2727H102.705V98H98.4432V35.8196H98.017L71.7031 98H67.5128L41.1989 35.8196H40.7727V98H36.5114V25.2727Z" fill="#1DB954"/>
<path d="M36.5114 25.2727V24.2727H35.5114V25.2727H36.5114ZM41.3409 25.2727L42.2621 24.8836L42.0041 24.2727H41.3409V25.2727ZM69.3594 91.608L68.4382 91.997L68.6962 92.608H69.3594V91.608ZM69.8565 91.608V92.608H70.5197L70.7777 91.997L69.8565 91.608ZM97.875 25.2727V24.2727H97.2118L96.9538 24.8836L97.875 25.2727ZM102.705 25.2727H103.705V24.2727H102.705V25.2727ZM102.705 98V99H103.705V98H102.705ZM98.4432 98H97.4432V99H98.4432V98ZM98.4432 35.8196H99.4432V34.8196H98.4432V35.8196ZM98.017 35.8196V34.8196H97.3544L97.0961 35.4299L98.017 35.8196ZM71.7031 98V99H72.3658L72.6241 98.3897L71.7031 98ZM67.5128 98L66.5919 98.3897L66.8501 99H67.5128V98ZM41.1989 35.8196L42.1198 35.4299L41.8615 34.8196H41.1989V35.8196ZM40.7727 35.8196V34.8196H39.7727V35.8196H40.7727ZM40.7727 98V99H41.7727V98H40.7727ZM36.5114 98H35.5114V99H36.5114V98ZM36.5114 26.2727H41.3409V24.2727H36.5114V26.2727ZM40.4197 25.6618L68.4382 91.997L70.2806 91.2189L42.2621 24.8836L40.4197 25.6618ZM69.3594 92.608H69.8565V90.608H69.3594V92.608ZM70.7777 91.997L98.7962 25.6618L96.9538 24.8836L68.9353 91.2189L70.7777 91.997ZM97.875 26.2727H102.705V24.2727H97.875V26.2727ZM101.705 25.2727V98H103.705V25.2727H101.705ZM102.705 97H98.4432V99H102.705V97ZM99.4432 98V35.8196H97.4432V98H99.4432ZM98.4432 34.8196H98.017V36.8196H98.4432V34.8196ZM97.0961 35.4299L70.7822 97.6103L72.6241 98.3897L98.938 36.2093L97.0961 35.4299ZM71.7031 97H67.5128V99H71.7031V97ZM68.4337 97.6103L42.1198 35.4299L40.2779 36.2093L66.5919 98.3897L68.4337 97.6103ZM41.1989 34.8196H40.7727V36.8196H41.1989V34.8196ZM39.7727 35.8196V98H41.7727V35.8196H39.7727ZM40.7727 97H36.5114V99H40.7727V97ZM37.5114 98V25.2727H35.5114V98H37.5114Z" fill="#1DB954" mask="url(#path-2-outside-1_849_341)"/>
<mask id="path-4-outside-2_849_341" maskUnits="userSpaceOnUse" x="97" y="100" width="69" height="75" fill="black">
<rect fill="white" x="97" y="100" width="69" height="75"/>
<path d="M98.5114 101.273H103.341L131.359 167.608H131.857L159.875 101.273H164.705V174H160.443V111.82H160.017L133.703 174H129.513L103.199 111.82H102.773V174H98.5114V101.273Z"/>
</mask>
<path d="M98.5114 101.273H103.341L131.359 167.608H131.857L159.875 101.273H164.705V174H160.443V111.82H160.017L133.703 174H129.513L103.199 111.82H102.773V174H98.5114V101.273Z" fill="#1DB954"/>
<path d="M98.5114 101.273V100.273H97.5114V101.273H98.5114ZM103.341 101.273L104.262 100.884L104.004 100.273H103.341V101.273ZM131.359 167.608L130.438 167.997L130.696 168.608H131.359V167.608ZM131.857 167.608V168.608H132.52L132.778 167.997L131.857 167.608ZM159.875 101.273V100.273H159.212L158.954 100.884L159.875 101.273ZM164.705 101.273H165.705V100.273H164.705V101.273ZM164.705 174V175H165.705V174H164.705ZM160.443 174H159.443V175H160.443V174ZM160.443 111.82H161.443V110.82H160.443V111.82ZM160.017 111.82V110.82H159.354L159.096 111.43L160.017 111.82ZM133.703 174V175H134.366L134.624 174.39L133.703 174ZM129.513 174L128.592 174.39L128.85 175H129.513V174ZM103.199 111.82L104.12 111.43L103.862 110.82H103.199V111.82ZM102.773 111.82V110.82H101.773V111.82H102.773ZM102.773 174V175H103.773V174H102.773ZM98.5114 174H97.5114V175H98.5114V174ZM98.5114 102.273H103.341V100.273H98.5114V102.273ZM102.42 101.662L130.438 167.997L132.281 167.219L104.262 100.884L102.42 101.662ZM131.359 168.608H131.857V166.608H131.359V168.608ZM132.778 167.997L160.796 101.662L158.954 100.884L130.935 167.219L132.778 167.997ZM159.875 102.273H164.705V100.273H159.875V102.273ZM163.705 101.273V174H165.705V101.273H163.705ZM164.705 173H160.443V175H164.705V173ZM161.443 174V111.82H159.443V174H161.443ZM160.443 110.82H160.017V112.82H160.443V110.82ZM159.096 111.43L132.782 173.61L134.624 174.39L160.938 112.209L159.096 111.43ZM133.703 173H129.513V175H133.703V173ZM130.434 173.61L104.12 111.43L102.278 112.209L128.592 174.39L130.434 173.61ZM103.199 110.82H102.773V112.82H103.199V110.82ZM101.773 111.82V174H103.773V111.82H101.773ZM102.773 173H98.5114V175H102.773V173ZM99.5114 174V101.273H97.5114V174H99.5114Z" fill="#1DB954" mask="url(#path-4-outside-2_849_341)"/>
<path d="M5 100.494H196.005" stroke="#1DB954" stroke-width="5"/>
</svg>
